<svg width="20" height="18" viewBox="0 0 20 18" fill="none" xmlns="http://www.w3.org/2000/svg">
<path d="M9.2201 17.9239C8.28634 17.7945 7.36354 17.5965 6.45928 17.3317C2.9959 16.0419 0.999899 13.5087 0.765036 9.86755C0.573491 6.89518 0.726462 3.90065 0.726462 0.856438H9.2201V17.9239Z" fill="white"/>
<path d="M19.1778 5.02461C19.1777 5.8594 18.9287 6.67552 18.462 7.37019C17.9953 8.06485 17.3318 8.607 16.5552 8.92836C15.7785 9.24972 14.9233 9.33592 14.0974 9.1761C13.2714 9.01629 12.5116 8.6176 11.9136 8.03026C11.3156 7.44291 10.9061 6.69318 10.7368 5.87546C10.5675 5.05773 10.6459 4.2086 10.9621 3.43498C11.2783 2.66137 11.8182 1.99785 12.5138 1.52801C13.2094 1.05817 14.0296 0.80302 14.871 0.794672C15.4348 0.788361 15.9942 0.893152 16.5168 1.10297C17.0394 1.31278 17.5148 1.62344 17.9154 2.01693C18.316 2.41041 18.6339 2.87889 18.8506 3.39519C19.0673 3.9115 19.1785 4.46534 19.1778 5.02461Z" fill="white"/>
</svg>
