<svg width="20" height="6" viewBox="0 0 20 6" fill="none" xmlns="http://www.w3.org/2000/svg">
<path d="M1.5 3.00104C1.5 2.45019 1.95045 2 2.5 2C3.04955 2 3.5 2.45019 3.5 3.00104C3.5 3.55026 3.05118 4 2.5 4C1.94882 4 1.5 3.55026 1.5 3.00104ZM0 3.00104C0 4.37891 1.12062 5.5 2.5 5.5C3.87938 5.5 5 4.37891 5 3.00104C5 1.62317 3.87938 0.5 2.5 0.5C1.12062 0.5 0 1.62317 0 3.00104ZM9 3.00104C9 2.45019 9.45045 2 10 2C10.5496 2 11 2.45019 11 3.00104C11 3.55026 10.5512 4 10 4C9.44882 4 9 3.55026 9 3.00104ZM7.5 3.00104C7.5 4.37891 8.62062 5.5 10 5.5C11.3794 5.5 12.5 4.37891 12.5 3.00104C12.5 1.62317 11.3794 0.5 10 0.5C8.62062 0.5 7.5 1.62317 7.5 3.00104ZM20 3.00104C20 3.84749 19.5771 4.59703 18.9311 5.04929C18.5255 5.33323 18.032 5.5 17.5 5.5C16.968 5.5 16.4745 5.33323 16.0689 5.04929C15.4229 4.59703 15 3.84749 15 3.00104C15 1.62317 16.1206 0.5 17.5 0.5C18.8794 0.5 20 1.62317 20 3.00104ZM17.5 4C18.0512 4 18.5 3.55026 18.5 3.00104C18.5 2.45019 18.0496 2 17.5 2C16.9504 2 16.5 2.45019 16.5 3.00104C16.5 3.55026 16.9488 4 17.5 4Z" fill="white"/>
</svg>
